<?xml version="1.0" standalone="no"?>
<!DOCTYPE svg PUBLIC "-//W3C//DTD SVG 20010904//EN"
 "http://www.w3.org/TR/2001/REC-SVG-20010904/DTD/svg10.dtd">
<svg version="1.0" xmlns="http://www.w3.org/2000/svg"
 width="147.000000pt" height="182.000000pt" viewBox="0 0 147.000000 182.000000"
 preserveAspectRatio="xMidYMid meet">

<g transform="translate(0.000000,182.000000) scale(0.100000,-0.100000)"
fill="#000000" stroke="none">
<path d="M367 1760 c-102 -31 -197 -147 -197 -241 l0 -29 110 0 c109 0 144
-11 74 -25 -44 -8 -127 -82 -157 -140 -18 -34 -21 -62 -25 -197 -2 -87 -2
-169 2 -183 l6 -25 220 0 c136 0 221 4 225 10 3 6 -2 22 -13 38 -21 32 -38 87
-47 157 -3 28 -16 76 -27 107 -18 52 -19 65 -9 134 12 82 26 114 66 156 51 55
125 77 194 58 54 -14 122 -76 147 -132 10 -24 25 -49 32 -57 9 -9 12 -26 7
-50 -12 -72 -28 -137 -45 -186 -10 -27 -25 -81 -34 -120 -9 -38 -19 -80 -22
-92 l-6 -23 216 0 216 0 0 140 0 139 -117 3 -118 3 45 15 c29 9 65 34 102 70
46 45 60 66 73 114 41 142 -23 284 -153 342 -52 24 -55 24 -395 23 -188 0
-354 -4 -370 -9z"/>
<path d="M375 852 c-99 -34 -165 -103 -185 -195 -18 -80 -9 -401 13 -450 27
-62 71 -111 129 -143 l53 -29 355 0 c339 0 357 1 400 21 65 30 107 69 138 128
37 71 38 179 2 250 -30 58 -97 119 -154 137 -41 14 -40 14 69 19 l110 5 -3 35
c-9 88 -65 167 -152 212 -40 21 -58 23 -175 23 l-130 0 1 -93 c1 -51 7 -98 13
-106 19 -22 101 -187 101 -202 0 -12 -37 -14 -215 -14 -118 0 -215 4 -215 9 0
17 24 77 40 101 28 41 69 181 65 225 -1 22 -3 50 -4 63 -1 21 -4 22 -103 22
-71 -1 -119 -6 -153 -18z m265 -496 c0 -22 -17 -36 -41 -36 -19 0 -29 -5 -29
-15 0 -8 9 -15 20 -15 12 0 20 -7 20 -16 0 -9 -9 -18 -20 -21 -14 -4 -20 -14
-20 -35 0 -26 -3 -29 -27 -26 -27 3 -28 5 -31 72 -2 38 -1 75 2 83 4 9 24 13
66 13 33 0 60 -2 60 -4z m68 -83 c3 -82 3 -83 -22 -83 -24 0 -25 3 -28 78 -4
90 -3 94 25 90 20 -3 22 -10 25 -85z m152 67 c0 -16 -7 -20 -36 -20 -39 0 -44
-23 -6 -28 27 -4 29 -32 3 -39 -11 -3 -21 -17 -25 -35 -5 -24 -10 -29 -28 -26
-21 3 -23 9 -26 72 -2 38 -1 75 2 83 4 9 23 13 61 13 48 0 55 -2 55 -20z m123
-57 c30 -83 24 -106 -20 -78 -28 19 -47 19 -63 0 -15 -19 -50 -20 -50 -2 0 11
22 83 45 145 2 6 17 12 33 12 26 0 30 -5 55 -77z"/>
<path d="M916 284 c-10 -25 -7 -34 9 -34 8 0 15 9 15 19 0 26 -16 35 -24 15z"/>
<path d="M1277 109 c6 -6 9 -18 6 -25 -3 -8 -1 -14 5 -14 6 0 9 8 7 18 -2 9
-4 20 -4 25 -1 4 -6 7 -13 7 -9 0 -9 -3 -1 -11z"/>
<path d="M1270 50 c0 -5 4 -10 9 -10 6 0 13 5 16 10 3 6 -1 10 -9 10 -9 0 -16
-4 -16 -10z"/>
</g>
</svg>
